<svg xmlns="http://www.w3.org/2000/svg" xmlns:xlink="http://www.w3.org/1999/xlink" width="1366" zoomAndPan="magnify" viewBox="0 0 1024.5 576" height="768" preserveAspectRatio="xMidYMid meet" version="1.0"><defs><g/><clipPath id="e67c111c72"><path d="M 0 0.140625 L 1024 0.140625 L 1024 575.859375 L 0 575.859375 Z M 0 0.140625 " clip-rule="nonzero"/></clipPath><clipPath id="81c24fbf48"><path d="M 41 6 L 42.273438 6 L 42.273438 41 L 41 41 Z M 41 6 " clip-rule="nonzero"/></clipPath><clipPath id="2f0e504d06"><path d="M 0.472656 6 L 2 6 L 2 41 L 0.472656 41 Z M 0.472656 6 " clip-rule="nonzero"/></clipPath><clipPath id="88e1895cf9"><path d="M 4 2.300781 L 39 2.300781 L 39 4 L 4 4 Z M 4 2.300781 " clip-rule="nonzero"/></clipPath><clipPath id="b24c7820e3"><path d="M 4 43 L 39 43 L 39 44.097656 L 4 44.097656 Z M 4 43 " clip-rule="nonzero"/></clipPath><clipPath id="5d787203cd"><path d="M 38 2.300781 L 42.273438 2.300781 L 42.273438 7 L 38 7 Z M 38 2.300781 " clip-rule="nonzero"/></clipPath><clipPath id="ddbbacbba6"><path d="M 0.472656 2.300781 L 5 2.300781 L 5 7 L 0.472656 7 Z M 0.472656 2.300781 " clip-rule="nonzero"/></clipPath><clipPath id="ce7973b99f"><path d="M 38 40 L 42.273438 40 L 42.273438 44.097656 L 38 44.097656 Z M 38 40 " clip-rule="nonzero"/></clipPath><clipPath id="18264fdc40"><path d="M 0.472656 40 L 5 40 L 5 44.097656 L 0.472656 44.097656 Z M 0.472656 40 " clip-rule="nonzero"/></clipPath><clipPath id="2ee07e0ad2"><path d="M 7.585938 7.636719 L 35.449219 7.636719 L 35.449219 37.824219 L 7.585938 37.824219 Z M 7.585938 7.636719 " clip-rule="nonzero"/></clipPath><clipPath id="93a60e4f87"><path d="M 53 0.230469 L 175.605469 0.230469 L 175.605469 45.566406 L 53 45.566406 Z M 53 0.230469 " clip-rule="nonzero"/></clipPath><clipPath id="813f13f446"><rect x="0" width="123" y="0" height="46"/></clipPath><clipPath id="127646bb8b"><rect x="0" width="176" y="0" height="46"/></clipPath></defs><g clip-path="url(#e67c111c72)"><path fill="#ffffff" d="M 0 0.140625 L 1024 0.140625 L 1024 575.859375 L 0 575.859375 Z M 0 0.140625 " fill-opacity="1" fill-rule="nonzero"/></g><g transform="matrix(1, 0, 0, 1, 385, 63)"><g clip-path="url(#127646bb8b)"><g clip-path="url(#81c24fbf48)"><path fill="#000000" d="M 41.320312 6.160156 L 42.578125 6.160156 L 42.578125 40.546875 L 41.320312 40.546875 Z M 41.320312 6.160156 " fill-opacity="1" fill-rule="nonzero"/></g><g clip-path="url(#2f0e504d06)"><path fill="#000000" d="M 0.472656 6.160156 L 1.730469 6.160156 L 1.730469 40.546875 L 0.472656 40.546875 Z M 0.472656 6.160156 " fill-opacity="1" fill-rule="nonzero"/></g><g clip-path="url(#88e1895cf9)"><path fill="#000000" d="M 4.332031 2.300781 L 38.722656 2.300781 L 38.722656 3.558594 L 4.332031 3.558594 Z M 4.332031 2.300781 " fill-opacity="1" fill-rule="nonzero"/></g><g clip-path="url(#b24c7820e3)"><path fill="#000000" d="M 4.332031 43.148438 L 38.722656 43.148438 L 38.722656 44.40625 L 4.332031 44.40625 Z M 4.332031 43.148438 " fill-opacity="1" fill-rule="nonzero"/></g><g clip-path="url(#5d787203cd)"><path fill="#000000" d="M 41.320312 3.558594 L 41.320312 6.160156 L 42.578125 6.160156 L 42.578125 2.300781 L 38.722656 2.300781 L 38.722656 3.558594 Z M 41.320312 3.558594 " fill-opacity="1" fill-rule="nonzero"/></g><g clip-path="url(#ddbbacbba6)"><path fill="#000000" d="M 1.730469 3.558594 L 4.332031 3.558594 L 4.332031 2.300781 L 0.472656 2.300781 L 0.472656 6.160156 L 1.730469 6.160156 Z M 1.730469 3.558594 " fill-opacity="1" fill-rule="nonzero"/></g><g clip-path="url(#ce7973b99f)"><path fill="#000000" d="M 41.320312 43.148438 L 38.722656 43.148438 L 38.722656 44.40625 L 42.578125 44.40625 L 42.578125 40.546875 L 41.320312 40.546875 Z M 41.320312 43.148438 " fill-opacity="1" fill-rule="nonzero"/></g><g clip-path="url(#18264fdc40)"><path fill="#000000" d="M 1.730469 43.148438 L 1.730469 40.546875 L 0.472656 40.546875 L 0.472656 44.40625 L 4.332031 44.40625 L 4.332031 43.148438 Z M 1.730469 43.148438 " fill-opacity="1" fill-rule="nonzero"/></g><g clip-path="url(#2ee07e0ad2)"><path fill="#000001" d="M 35.210938 31.058594 L 21.6875 7.636719 L 8.167969 31.058594 C 7.804688 31.558594 7.613281 32.09375 7.613281 32.640625 C 7.613281 34.21875 9.160156 35.640625 11.960938 36.65625 C 14.570312 37.597656 18.023438 38.117188 21.691406 38.117188 C 25.355469 38.117188 28.808594 37.597656 31.417969 36.65625 C 34.21875 35.640625 35.765625 34.21875 35.765625 32.640625 C 35.765625 32.09375 35.574219 31.558594 35.210938 31.058594 Z M 32.714844 29.171875 C 32.316406 28.980469 31.886719 28.796875 31.417969 28.628906 C 28.808594 27.6875 25.355469 27.167969 21.691406 27.167969 C 18.023438 27.167969 14.570312 27.6875 11.960938 28.628906 C 11.492188 28.796875 11.0625 28.980469 10.664062 29.171875 L 21.6875 10.074219 Z M 21.691406 36.898438 C 14.113281 36.898438 8.832031 34.65625 8.832031 32.640625 C 8.832031 30.628906 14.113281 28.386719 21.691406 28.386719 C 29.265625 28.386719 34.546875 30.628906 34.546875 32.640625 C 34.546875 34.65625 29.265625 36.898438 21.691406 36.898438 Z M 21.691406 36.898438 " fill-opacity="1" fill-rule="nonzero"/></g><g clip-path="url(#93a60e4f87)"><g transform="matrix(1, 0, 0, 1, 53, -0.000000000000063949)"><g clip-path="url(#813f13f446)"><g fill="#191919" fill-opacity="1"><g transform="translate(0.316162, 33.378585)"><g><path d="M 2.71875 -0.15625 C 3 -0.550781 3.234375 -1.035156 3.421875 -1.609375 C 3.617188 -2.191406 3.71875 -2.785156 3.71875 -3.390625 L 3.71875 -19.25 C 3.71875 -19.851562 3.617188 -20.441406 3.421875 -21.015625 C 3.234375 -21.597656 3 -22.085938 2.71875 -22.484375 L 2.71875 -22.640625 L 10.421875 -22.640625 C 12.878906 -22.640625 14.921875 -22.125 16.546875 -21.09375 C 18.171875 -20.070312 18.984375 -18.378906 18.984375 -16.015625 C 18.984375 -14.484375 18.609375 -13.203125 17.859375 -12.171875 C 17.117188 -11.148438 16.144531 -10.398438 14.9375 -9.921875 C 13.726562 -9.453125 12.425781 -9.21875 11.03125 -9.21875 C 9.84375 -9.21875 8.753906 -9.421875 7.765625 -9.828125 L 7.765625 -10.21875 C 8.554688 -10.019531 9.394531 -9.921875 10.28125 -9.921875 C 12.03125 -9.921875 13.378906 -10.492188 14.328125 -11.640625 C 15.273438 -12.785156 15.75 -14.242188 15.75 -16.015625 C 15.75 -17.066406 15.535156 -18.046875 15.109375 -18.953125 C 14.691406 -19.859375 14.070312 -20.585938 13.25 -21.140625 C 12.4375 -21.691406 11.4375 -21.96875 10.25 -21.96875 C 9.539062 -21.96875 8.925781 -21.925781 8.40625 -21.84375 C 7.894531 -21.769531 7.359375 -21.644531 6.796875 -21.46875 L 6.796875 -3.390625 C 6.796875 -2.785156 6.890625 -2.191406 7.078125 -1.609375 C 7.273438 -1.035156 7.515625 -0.550781 7.796875 -0.15625 L 7.796875 0 L 2.71875 0 Z M 2.71875 -0.15625 "/></g></g></g><g fill="#191919" fill-opacity="1"><g transform="translate(19.622785, 33.378585)"><g><path d="M 9.21875 0.359375 C 7.6875 0.359375 6.332031 -0.0078125 5.15625 -0.75 C 3.976562 -1.5 3.070312 -2.515625 2.4375 -3.796875 C 1.800781 -5.078125 1.484375 -6.507812 1.484375 -8.09375 C 1.484375 -9.664062 1.800781 -11.09375 2.4375 -12.375 C 3.070312 -13.65625 3.976562 -14.664062 5.15625 -15.40625 C 6.332031 -16.15625 7.6875 -16.53125 9.21875 -16.53125 C 10.75 -16.53125 12.101562 -16.15625 13.28125 -15.40625 C 14.457031 -14.664062 15.363281 -13.65625 16 -12.375 C 16.632812 -11.09375 16.953125 -9.664062 16.953125 -8.09375 C 16.953125 -6.507812 16.632812 -5.078125 16 -3.796875 C 15.363281 -2.515625 14.457031 -1.5 13.28125 -0.75 C 12.101562 -0.0078125 10.75 0.359375 9.21875 0.359375 Z M 9.21875 -0.328125 C 10.6875 -0.328125 11.804688 -1.050781 12.578125 -2.5 C 13.359375 -3.957031 13.75 -5.820312 13.75 -8.09375 C 13.75 -10.351562 13.359375 -12.207031 12.578125 -13.65625 C 11.804688 -15.113281 10.6875 -15.84375 9.21875 -15.84375 C 7.75 -15.84375 6.625 -15.113281 5.84375 -13.65625 C 5.070312 -12.207031 4.6875 -10.351562 4.6875 -8.09375 C 4.6875 -5.820312 5.070312 -3.957031 5.84375 -2.5 C 6.625 -1.050781 7.75 -0.328125 9.21875 -0.328125 Z M 9.21875 -0.328125 "/></g></g></g><g fill="#191919" fill-opacity="1"><g transform="translate(37.409437, 33.378585)"><g><path d="M 2.421875 -0.15625 C 2.984375 -0.9375 3.265625 -1.941406 3.265625 -3.171875 L 3.265625 -11.9375 C 3.265625 -12.644531 3.175781 -13.234375 3 -13.703125 C 2.832031 -14.179688 2.578125 -14.582031 2.234375 -14.90625 L 2.234375 -15.078125 L 5.984375 -16.53125 L 6.140625 -16.53125 L 6.140625 -12.78125 L 6.3125 -12.78125 C 6.695312 -14.007812 7.328125 -14.941406 8.203125 -15.578125 C 9.078125 -16.210938 10.289062 -16.53125 11.84375 -16.53125 L 11.84375 -13.75 L 10.25 -13.75 C 7.507812 -13.75 6.140625 -12.53125 6.140625 -10.09375 L 6.140625 -3.171875 C 6.140625 -1.941406 6.421875 -0.9375 6.984375 -0.15625 L 6.984375 0 L 2.421875 0 Z M 2.421875 -0.15625 "/></g></g></g><g fill="#191919" fill-opacity="1"><g transform="translate(49.116224, 33.378585)"><g><path d="M 7.109375 0.359375 C 5.953125 0.359375 4.960938 -0.015625 4.140625 -0.765625 C 3.316406 -1.523438 2.90625 -2.585938 2.90625 -3.953125 L 2.90625 -13.328125 C 2.90625 -14.359375 2.421875 -15.066406 1.453125 -15.453125 L 1.453125 -15.625 C 2.921875 -16.375 4.3125 -17.582031 5.625 -19.25 L 5.796875 -19.25 L 5.796875 -16.171875 L 10.484375 -16.171875 L 10.125 -15.140625 L 5.796875 -15.140625 L 5.796875 -3.953125 C 5.796875 -3.066406 6.039062 -2.375 6.53125 -1.875 C 7.03125 -1.375 7.65625 -1.125 8.40625 -1.125 C 8.90625 -1.125 9.332031 -1.207031 9.6875 -1.375 C 10.039062 -1.539062 10.304688 -1.726562 10.484375 -1.9375 L 10.796875 -1.78125 C 10.453125 -1.132812 9.960938 -0.613281 9.328125 -0.21875 C 8.691406 0.164062 7.953125 0.359375 7.109375 0.359375 Z M 7.109375 0.359375 "/></g></g></g><g fill="#191919" fill-opacity="1"><g transform="translate(59.626451, 33.378585)"><g><path d="M 2.421875 -0.15625 C 2.984375 -0.9375 3.265625 -1.941406 3.265625 -3.171875 L 3.265625 -13.328125 C 3.265625 -14.421875 2.820312 -15.15625 1.9375 -15.53125 L 1.9375 -15.6875 C 2.539062 -15.945312 2.976562 -16.300781 3.25 -16.75 C 3.519531 -17.207031 3.753906 -17.898438 3.953125 -18.828125 C 4.703125 -22.296875 6.820312 -24.03125 10.3125 -24.03125 L 10.90625 -24.03125 L 10.90625 -21.375 L 8.15625 -21.375 C 7.113281 -21.375 6.300781 -21.140625 5.71875 -20.671875 C 5.144531 -20.210938 4.859375 -19.53125 4.859375 -18.625 C 4.859375 -18.175781 4.960938 -17.707031 5.171875 -17.21875 C 5.390625 -16.738281 5.691406 -16.390625 6.078125 -16.171875 L 10.375 -16.171875 L 10.0625 -15.140625 L 6.140625 -15.140625 L 6.140625 -3.171875 C 6.140625 -1.941406 6.421875 -0.9375 6.984375 -0.15625 L 6.984375 0 L 2.421875 0 Z M 2.421875 -0.15625 "/></g></g></g><g fill="#191919" fill-opacity="1"><g transform="translate(69.586898, 33.378585)"><g><path d="M 9.21875 0.359375 C 7.6875 0.359375 6.332031 -0.0078125 5.15625 -0.75 C 3.976562 -1.5 3.070312 -2.515625 2.4375 -3.796875 C 1.800781 -5.078125 1.484375 -6.507812 1.484375 -8.09375 C 1.484375 -9.664062 1.800781 -11.09375 2.4375 -12.375 C 3.070312 -13.65625 3.976562 -14.664062 5.15625 -15.40625 C 6.332031 -16.15625 7.6875 -16.53125 9.21875 -16.53125 C 10.75 -16.53125 12.101562 -16.15625 13.28125 -15.40625 C 14.457031 -14.664062 15.363281 -13.65625 16 -12.375 C 16.632812 -11.09375 16.953125 -9.664062 16.953125 -8.09375 C 16.953125 -6.507812 16.632812 -5.078125 16 -3.796875 C 15.363281 -2.515625 14.457031 -1.5 13.28125 -0.75 C 12.101562 -0.0078125 10.75 0.359375 9.21875 0.359375 Z M 9.21875 -0.328125 C 10.6875 -0.328125 11.804688 -1.050781 12.578125 -2.5 C 13.359375 -3.957031 13.75 -5.820312 13.75 -8.09375 C 13.75 -10.351562 13.359375 -12.207031 12.578125 -13.65625 C 11.804688 -15.113281 10.6875 -15.84375 9.21875 -15.84375 C 7.75 -15.84375 6.625 -15.113281 5.84375 -13.65625 C 5.070312 -12.207031 4.6875 -10.351562 4.6875 -8.09375 C 4.6875 -5.820312 5.070312 -3.957031 5.84375 -2.5 C 6.625 -1.050781 7.75 -0.328125 9.21875 -0.328125 Z M 9.21875 -0.328125 "/></g></g></g><g fill="#191919" fill-opacity="1"><g transform="translate(87.373549, 33.378585)"><g><path d="M 2.265625 -0.15625 C 2.828125 -0.9375 3.109375 -1.941406 3.109375 -3.171875 L 3.109375 -19.5 C 3.109375 -20.21875 3.019531 -20.8125 2.84375 -21.28125 C 2.675781 -21.757812 2.414062 -22.171875 2.0625 -22.515625 L 2.0625 -22.671875 L 5.828125 -24.09375 L 5.984375 -24.09375 L 5.984375 -3.171875 C 5.984375 -1.941406 6.265625 -0.9375 6.828125 -0.15625 L 6.828125 0 L 2.265625 0 Z M 2.265625 -0.15625 "/></g></g></g><g fill="#191919" fill-opacity="1"><g transform="translate(95.65233, 33.378585)"><g><path d="M 2.421875 -0.15625 C 2.984375 -0.9375 3.265625 -1.941406 3.265625 -3.171875 L 3.265625 -11.9375 C 3.265625 -12.644531 3.175781 -13.234375 3 -13.703125 C 2.832031 -14.179688 2.578125 -14.582031 2.234375 -14.90625 L 2.234375 -15.078125 L 5.984375 -16.53125 L 6.140625 -16.53125 L 6.140625 -3.171875 C 6.140625 -1.941406 6.421875 -0.9375 6.984375 -0.15625 L 6.984375 0 L 2.421875 0 Z M 4.6875 -18.65625 C 4.164062 -18.65625 3.722656 -18.84375 3.359375 -19.21875 C 2.992188 -19.601562 2.8125 -20.054688 2.8125 -20.578125 C 2.8125 -21.085938 3 -21.523438 3.375 -21.890625 C 3.75 -22.265625 4.1875 -22.453125 4.6875 -22.453125 C 5.226562 -22.453125 5.679688 -22.265625 6.046875 -21.890625 C 6.410156 -21.523438 6.59375 -21.085938 6.59375 -20.578125 C 6.59375 -20.035156 6.410156 -19.578125 6.046875 -19.203125 C 5.679688 -18.835938 5.226562 -18.65625 4.6875 -18.65625 Z M 4.6875 -18.65625 "/></g></g></g><g fill="#191919" fill-opacity="1"><g transform="translate(104.254511, 33.378585)"><g><path d="M 9.21875 0.359375 C 7.6875 0.359375 6.332031 -0.0078125 5.15625 -0.75 C 3.976562 -1.5 3.070312 -2.515625 2.4375 -3.796875 C 1.800781 -5.078125 1.484375 -6.507812 1.484375 -8.09375 C 1.484375 -9.664062 1.800781 -11.09375 2.4375 -12.375 C 3.070312 -13.65625 3.976562 -14.664062 5.15625 -15.40625 C 6.332031 -16.15625 7.6875 -16.53125 9.21875 -16.53125 C 10.75 -16.53125 12.101562 -16.15625 13.28125 -15.40625 C 14.457031 -14.664062 15.363281 -13.65625 16 -12.375 C 16.632812 -11.09375 16.953125 -9.664062 16.953125 -8.09375 C 16.953125 -6.507812 16.632812 -5.078125 16 -3.796875 C 15.363281 -2.515625 14.457031 -1.5 13.28125 -0.75 C 12.101562 -0.0078125 10.75 0.359375 9.21875 0.359375 Z M 9.21875 -0.328125 C 10.6875 -0.328125 11.804688 -1.050781 12.578125 -2.5 C 13.359375 -3.957031 13.75 -5.820312 13.75 -8.09375 C 13.75 -10.351562 13.359375 -12.207031 12.578125 -13.65625 C 11.804688 -15.113281 10.6875 -15.84375 9.21875 -15.84375 C 7.75 -15.84375 6.625 -15.113281 5.84375 -13.65625 C 5.070312 -12.207031 4.6875 -10.351562 4.6875 -8.09375 C 4.6875 -5.820312 5.070312 -3.957031 5.84375 -2.5 C 6.625 -1.050781 7.75 -0.328125 9.21875 -0.328125 Z M 9.21875 -0.328125 "/></g></g></g></g></g></g></g></g></svg>