<svg xmlns="http://www.w3.org/2000/svg" xmlns:xlink="http://www.w3.org/1999/xlink" width="1366" zoomAndPan="magnify" viewBox="0 0 1024.5 576" height="768" preserveAspectRatio="xMidYMid meet" version="1.0"><defs><g/><clipPath id="5d298ffca6"><path d="M 188 26 L 194.171875 26 L 194.171875 185 L 188 185 Z M 188 26 " clip-rule="nonzero"/></clipPath><clipPath id="afff89682b"><path d="M 0.617188 26 L 7 26 L 7 185 L 0.617188 185 Z M 0.617188 26 " clip-rule="nonzero"/></clipPath><clipPath id="d1d746bdc2"><path d="M 18 9.160156 L 177 9.160156 L 177 15 L 18 15 Z M 18 9.160156 " clip-rule="nonzero"/></clipPath><clipPath id="2ac6c9b3e9"><path d="M 18 196 L 177 196 L 177 202.714844 L 18 202.714844 Z M 18 196 " clip-rule="nonzero"/></clipPath><clipPath id="e84f5cf80c"><path d="M 176 9.160156 L 194.171875 9.160156 L 194.171875 27 L 176 27 Z M 176 9.160156 " clip-rule="nonzero"/></clipPath><clipPath id="a59e48d578"><path d="M 0.617188 9.160156 L 19 9.160156 L 19 27 L 0.617188 27 Z M 0.617188 9.160156 " clip-rule="nonzero"/></clipPath><clipPath id="67a8745e44"><path d="M 176 184 L 194.171875 184 L 194.171875 202.714844 L 176 202.714844 Z M 176 184 " clip-rule="nonzero"/></clipPath><clipPath id="ac4f4b623c"><path d="M 0.617188 184 L 19 184 L 19 202.714844 L 0.617188 202.714844 Z M 0.617188 184 " clip-rule="nonzero"/></clipPath><clipPath id="be802a043b"><path d="M 33.316406 33.710938 L 162.9375 33.710938 L 162.9375 173.84375 L 33.316406 173.84375 Z M 33.316406 33.710938 " clip-rule="nonzero"/></clipPath><clipPath id="30a2e2741e"><path d="M 243 0.210938 L 805.878906 0.210938 L 805.878906 207.46875 L 243 207.46875 Z M 243 0.210938 " clip-rule="nonzero"/></clipPath><clipPath id="6e813ae186"><rect x="0" width="563" y="0" height="208"/></clipPath><clipPath id="dc4fec4cb9"><rect x="0" width="806" y="0" height="208"/></clipPath></defs><g transform="matrix(1, 0, 0, 1, 98, 182)"><g clip-path="url(#dc4fec4cb9)"><g clip-path="url(#5d298ffca6)"><path fill="#ffffff" d="M 188.390625 26.894531 L 194.171875 26.894531 L 194.171875 184.976562 L 188.390625 184.976562 Z M 188.390625 26.894531 " fill-opacity="1" fill-rule="nonzero"/></g><g clip-path="url(#afff89682b)"><path fill="#ffffff" d="M 0.617188 26.894531 L 6.398438 26.894531 L 6.398438 184.976562 L 0.617188 184.976562 Z M 0.617188 26.894531 " fill-opacity="1" fill-rule="nonzero"/></g><g clip-path="url(#d1d746bdc2)"><path fill="#ffffff" d="M 18.351562 9.160156 L 176.4375 9.160156 L 176.4375 14.941406 L 18.351562 14.941406 Z M 18.351562 9.160156 " fill-opacity="1" fill-rule="nonzero"/></g><g clip-path="url(#2ac6c9b3e9)"><path fill="#ffffff" d="M 18.351562 196.929688 L 176.4375 196.929688 L 176.4375 202.714844 L 18.351562 202.714844 Z M 18.351562 196.929688 " fill-opacity="1" fill-rule="nonzero"/></g><g clip-path="url(#e84f5cf80c)"><path fill="#ffffff" d="M 188.390625 14.941406 L 188.390625 26.894531 L 194.171875 26.894531 L 194.171875 9.160156 L 176.4375 9.160156 L 176.4375 14.941406 Z M 188.390625 14.941406 " fill-opacity="1" fill-rule="nonzero"/></g><g clip-path="url(#a59e48d578)"><path fill="#ffffff" d="M 6.398438 14.941406 L 18.351562 14.941406 L 18.351562 9.160156 L 0.617188 9.160156 L 0.617188 26.894531 L 6.398438 26.894531 Z M 6.398438 14.941406 " fill-opacity="1" fill-rule="nonzero"/></g><g clip-path="url(#67a8745e44)"><path fill="#ffffff" d="M 188.390625 196.929688 L 176.4375 196.929688 L 176.4375 202.714844 L 194.171875 202.714844 L 194.171875 184.976562 L 188.390625 184.976562 Z M 188.390625 196.929688 " fill-opacity="1" fill-rule="nonzero"/></g><g clip-path="url(#ac4f4b623c)"><path fill="#ffffff" d="M 6.398438 196.929688 L 6.398438 184.976562 L 0.617188 184.976562 L 0.617188 202.714844 L 18.351562 202.714844 L 18.351562 196.929688 Z M 6.398438 196.929688 " fill-opacity="1" fill-rule="nonzero"/></g><g clip-path="url(#be802a043b)"><path fill="#ffffff" d="M 160.390625 141.441406 L 98.191406 33.710938 L 35.992188 141.441406 C 34.316406 143.753906 33.445312 146.199219 33.445312 148.730469 C 33.445312 155.976562 40.546875 162.53125 53.4375 167.191406 C 65.4375 171.523438 81.328125 173.910156 98.191406 173.910156 C 115.054688 173.910156 130.949219 171.523438 142.945312 167.191406 C 155.835938 162.53125 162.9375 155.976562 162.9375 148.730469 C 162.9375 146.199219 162.066406 143.753906 160.390625 141.441406 Z M 148.910156 132.757812 C 147.085938 131.882812 145.097656 131.050781 142.945312 130.273438 C 130.949219 125.9375 115.054688 123.550781 98.191406 123.550781 C 81.328125 123.550781 65.4375 125.9375 53.4375 130.273438 C 51.285156 131.050781 49.300781 131.882812 47.476562 132.757812 L 98.191406 44.914062 Z M 98.191406 168.308594 C 63.339844 168.308594 39.050781 157.992188 39.050781 148.730469 C 39.050781 139.46875 63.339844 129.152344 98.191406 129.152344 C 133.046875 129.152344 157.335938 139.46875 157.335938 148.730469 C 157.335938 157.992188 133.046875 168.308594 98.191406 168.308594 Z M 98.191406 168.308594 " fill-opacity="1" fill-rule="nonzero"/></g><g clip-path="url(#30a2e2741e)"><g transform="matrix(1, 0, 0, 1, 243, -0.000000000000056843)"><g clip-path="url(#6e813ae186)"><g fill="#ffffff" fill-opacity="1"><g transform="translate(0.652776, 152.097369)"><g><path d="M 12.5 -0.75 C 13.789062 -2.53125 14.878906 -4.757812 15.765625 -7.4375 C 16.660156 -10.113281 17.109375 -12.84375 17.109375 -15.625 L 17.109375 -88.515625 C 17.109375 -91.296875 16.660156 -94.023438 15.765625 -96.703125 C 14.878906 -99.378906 13.789062 -101.609375 12.5 -103.390625 L 12.5 -104.140625 L 47.90625 -104.140625 C 59.207031 -104.140625 68.601562 -101.78125 76.09375 -97.0625 C 83.582031 -92.351562 87.328125 -84.546875 87.328125 -73.640625 C 87.328125 -66.597656 85.613281 -60.71875 82.1875 -56 C 78.769531 -51.289062 74.285156 -47.84375 68.734375 -45.65625 C 63.179688 -43.476562 57.179688 -42.390625 50.734375 -42.390625 C 45.273438 -42.390625 40.265625 -43.332031 35.703125 -45.21875 L 35.703125 -47.015625 C 39.367188 -46.117188 43.238281 -45.671875 47.3125 -45.671875 C 55.34375 -45.671875 61.539062 -48.296875 65.90625 -53.546875 C 70.269531 -58.804688 72.453125 -65.503906 72.453125 -73.640625 C 72.453125 -78.492188 71.484375 -83.003906 69.546875 -87.171875 C 67.609375 -91.335938 64.753906 -94.6875 60.984375 -97.21875 C 57.222656 -99.75 52.613281 -101.015625 47.15625 -101.015625 C 43.882812 -101.015625 41.054688 -100.835938 38.671875 -100.484375 C 36.296875 -100.140625 33.816406 -99.570312 31.234375 -98.78125 L 31.234375 -15.625 C 31.234375 -12.84375 31.679688 -10.113281 32.578125 -7.4375 C 33.472656 -4.757812 34.566406 -2.53125 35.859375 -0.75 L 35.859375 0 L 12.5 0 Z M 12.5 -0.75 "/></g></g></g><g fill="#ffffff" fill-opacity="1"><g transform="translate(89.449878, 152.097369)"><g><path d="M 42.390625 1.640625 C 35.347656 1.640625 29.125 -0.0664062 23.71875 -3.484375 C 18.320312 -6.910156 14.160156 -11.570312 11.234375 -17.46875 C 8.304688 -23.375 6.84375 -29.945312 6.84375 -37.1875 C 6.84375 -44.425781 8.304688 -50.992188 11.234375 -56.890625 C 14.160156 -62.796875 18.320312 -67.457031 23.71875 -70.875 C 29.125 -74.300781 35.347656 -76.015625 42.390625 -76.015625 C 49.429688 -76.015625 55.65625 -74.300781 61.0625 -70.875 C 66.46875 -67.457031 70.632812 -62.796875 73.5625 -56.890625 C 76.488281 -50.992188 77.953125 -44.425781 77.953125 -37.1875 C 77.953125 -29.945312 76.488281 -23.375 73.5625 -17.46875 C 70.632812 -11.570312 66.46875 -6.910156 61.0625 -3.484375 C 55.65625 -0.0664062 49.429688 1.640625 42.390625 1.640625 Z M 42.390625 -1.484375 C 49.140625 -1.484375 54.296875 -4.832031 57.859375 -11.53125 C 61.429688 -18.226562 63.21875 -26.78125 63.21875 -37.1875 C 63.21875 -47.601562 61.429688 -56.15625 57.859375 -62.84375 C 54.296875 -69.539062 49.140625 -72.890625 42.390625 -72.890625 C 35.648438 -72.890625 30.492188 -69.539062 26.921875 -62.84375 C 23.359375 -56.15625 21.578125 -47.601562 21.578125 -37.1875 C 21.578125 -26.78125 23.359375 -18.226562 26.921875 -11.53125 C 30.492188 -4.832031 35.648438 -1.484375 42.390625 -1.484375 Z M 42.390625 -1.484375 "/></g></g></g><g fill="#ffffff" fill-opacity="1"><g transform="translate(171.256164, 152.097369)"><g><path d="M 11.15625 -0.75 C 13.738281 -4.3125 15.03125 -8.921875 15.03125 -14.578125 L 15.03125 -54.890625 C 15.03125 -58.160156 14.628906 -60.882812 13.828125 -63.0625 C 13.035156 -65.25 11.847656 -67.085938 10.265625 -68.578125 L 10.265625 -69.328125 L 27.515625 -76.015625 L 28.265625 -76.015625 L 28.265625 -58.765625 L 29.015625 -58.765625 C 30.796875 -64.410156 33.691406 -68.695312 37.703125 -71.625 C 41.722656 -74.550781 47.304688 -76.015625 54.453125 -76.015625 L 54.453125 -63.21875 L 47.15625 -63.21875 C 34.5625 -63.21875 28.265625 -57.617188 28.265625 -46.421875 L 28.265625 -14.578125 C 28.265625 -8.921875 29.554688 -4.3125 32.140625 -0.75 L 32.140625 0 L 11.15625 0 Z M 11.15625 -0.75 "/></g></g></g><g fill="#ffffff" fill-opacity="1"><g transform="translate(225.099281, 152.097369)"><g><path d="M 32.734375 1.640625 C 27.367188 1.640625 22.800781 -0.09375 19.03125 -3.5625 C 15.269531 -7.039062 13.390625 -11.90625 13.390625 -18.15625 L 13.390625 -61.296875 C 13.390625 -66.054688 11.15625 -69.328125 6.6875 -71.109375 L 6.6875 -71.859375 C 13.4375 -75.328125 19.835938 -80.878906 25.890625 -88.515625 L 26.625 -88.515625 L 26.625 -74.375 L 48.203125 -74.375 L 46.5625 -69.625 L 26.625 -69.625 L 26.625 -18.15625 C 26.625 -14.082031 27.765625 -10.90625 30.046875 -8.625 C 32.328125 -6.34375 35.203125 -5.203125 38.671875 -5.203125 C 40.953125 -5.203125 42.910156 -5.570312 44.546875 -6.3125 C 46.191406 -7.0625 47.410156 -7.929688 48.203125 -8.921875 L 49.6875 -8.1875 C 48.101562 -5.207031 45.847656 -2.820312 42.921875 -1.03125 C 39.992188 0.75 36.597656 1.640625 32.734375 1.640625 Z M 32.734375 1.640625 "/></g></g></g><g fill="#ffffff" fill-opacity="1"><g transform="translate(273.439052, 152.097369)"><g><path d="M 11.15625 -0.75 C 13.738281 -4.3125 15.03125 -8.921875 15.03125 -14.578125 L 15.03125 -61.296875 C 15.03125 -66.347656 12.992188 -69.71875 8.921875 -71.40625 L 8.921875 -72.15625 C 11.703125 -73.34375 13.710938 -74.976562 14.953125 -77.0625 C 16.191406 -79.144531 17.257812 -82.316406 18.15625 -86.578125 C 21.625 -102.546875 31.390625 -110.53125 47.453125 -110.53125 L 50.140625 -110.53125 L 50.140625 -98.328125 L 37.484375 -98.328125 C 32.722656 -98.328125 29.003906 -97.257812 26.328125 -95.125 C 23.648438 -93 22.3125 -89.851562 22.3125 -85.6875 C 22.3125 -83.601562 22.804688 -81.445312 23.796875 -79.21875 C 24.796875 -76.988281 26.1875 -75.375 27.96875 -74.375 L 47.75 -74.375 L 46.265625 -69.625 L 28.265625 -69.625 L 28.265625 -14.578125 C 28.265625 -8.921875 29.554688 -4.3125 32.140625 -0.75 L 32.140625 0 L 11.15625 0 Z M 11.15625 -0.75 "/></g></g></g><g fill="#ffffff" fill-opacity="1"><g transform="translate(319.250214, 152.097369)"><g><path d="M 42.390625 1.640625 C 35.347656 1.640625 29.125 -0.0664062 23.71875 -3.484375 C 18.320312 -6.910156 14.160156 -11.570312 11.234375 -17.46875 C 8.304688 -23.375 6.84375 -29.945312 6.84375 -37.1875 C 6.84375 -44.425781 8.304688 -50.992188 11.234375 -56.890625 C 14.160156 -62.796875 18.320312 -67.457031 23.71875 -70.875 C 29.125 -74.300781 35.347656 -76.015625 42.390625 -76.015625 C 49.429688 -76.015625 55.65625 -74.300781 61.0625 -70.875 C 66.46875 -67.457031 70.632812 -62.796875 73.5625 -56.890625 C 76.488281 -50.992188 77.953125 -44.425781 77.953125 -37.1875 C 77.953125 -29.945312 76.488281 -23.375 73.5625 -17.46875 C 70.632812 -11.570312 66.46875 -6.910156 61.0625 -3.484375 C 55.65625 -0.0664062 49.429688 1.640625 42.390625 1.640625 Z M 42.390625 -1.484375 C 49.140625 -1.484375 54.296875 -4.832031 57.859375 -11.53125 C 61.429688 -18.226562 63.21875 -26.78125 63.21875 -37.1875 C 63.21875 -47.601562 61.429688 -56.15625 57.859375 -62.84375 C 54.296875 -69.539062 49.140625 -72.890625 42.390625 -72.890625 C 35.648438 -72.890625 30.492188 -69.539062 26.921875 -62.84375 C 23.359375 -56.15625 21.578125 -47.601562 21.578125 -37.1875 C 21.578125 -26.78125 23.359375 -18.226562 26.921875 -11.53125 C 30.492188 -4.832031 35.648438 -1.484375 42.390625 -1.484375 Z M 42.390625 -1.484375 "/></g></g></g><g fill="#ffffff" fill-opacity="1"><g transform="translate(401.0565, 152.097369)"><g><path d="M 10.40625 -0.75 C 12.988281 -4.3125 14.28125 -8.921875 14.28125 -14.578125 L 14.28125 -89.703125 C 14.28125 -92.972656 13.882812 -95.695312 13.09375 -97.875 C 12.300781 -100.0625 11.109375 -101.953125 9.515625 -103.546875 L 9.515625 -104.28125 L 26.78125 -110.828125 L 27.515625 -110.828125 L 27.515625 -14.578125 C 27.515625 -8.921875 28.804688 -4.3125 31.390625 -0.75 L 31.390625 0 L 10.40625 0 Z M 10.40625 -0.75 "/></g></g></g><g fill="#ffffff" fill-opacity="1"><g transform="translate(439.133159, 152.097369)"><g><path d="M 11.15625 -0.75 C 13.738281 -4.3125 15.03125 -8.921875 15.03125 -14.578125 L 15.03125 -54.890625 C 15.03125 -58.160156 14.628906 -60.882812 13.828125 -63.0625 C 13.035156 -65.25 11.847656 -67.085938 10.265625 -68.578125 L 10.265625 -69.328125 L 27.515625 -76.015625 L 28.265625 -76.015625 L 28.265625 -14.578125 C 28.265625 -8.921875 29.554688 -4.3125 32.140625 -0.75 L 32.140625 0 L 11.15625 0 Z M 21.578125 -85.84375 C 19.191406 -85.84375 17.15625 -86.707031 15.46875 -88.4375 C 13.78125 -90.175781 12.9375 -92.234375 12.9375 -94.609375 C 12.9375 -96.992188 13.804688 -99.03125 15.546875 -100.71875 C 17.285156 -102.40625 19.296875 -103.25 21.578125 -103.25 C 24.054688 -103.25 26.132812 -102.40625 27.8125 -100.71875 C 29.5 -99.03125 30.34375 -96.992188 30.34375 -94.609375 C 30.34375 -92.128906 29.5 -90.046875 27.8125 -88.359375 C 26.132812 -86.679688 24.054688 -85.84375 21.578125 -85.84375 Z M 21.578125 -85.84375 "/></g></g></g><g fill="#ffffff" fill-opacity="1"><g transform="translate(478.69724, 152.097369)"><g><path d="M 42.390625 1.640625 C 35.347656 1.640625 29.125 -0.0664062 23.71875 -3.484375 C 18.320312 -6.910156 14.160156 -11.570312 11.234375 -17.46875 C 8.304688 -23.375 6.84375 -29.945312 6.84375 -37.1875 C 6.84375 -44.425781 8.304688 -50.992188 11.234375 -56.890625 C 14.160156 -62.796875 18.320312 -67.457031 23.71875 -70.875 C 29.125 -74.300781 35.347656 -76.015625 42.390625 -76.015625 C 49.429688 -76.015625 55.65625 -74.300781 61.0625 -70.875 C 66.46875 -67.457031 70.632812 -62.796875 73.5625 -56.890625 C 76.488281 -50.992188 77.953125 -44.425781 77.953125 -37.1875 C 77.953125 -29.945312 76.488281 -23.375 73.5625 -17.46875 C 70.632812 -11.570312 66.46875 -6.910156 61.0625 -3.484375 C 55.65625 -0.0664062 49.429688 1.640625 42.390625 1.640625 Z M 42.390625 -1.484375 C 49.140625 -1.484375 54.296875 -4.832031 57.859375 -11.53125 C 61.429688 -18.226562 63.21875 -26.78125 63.21875 -37.1875 C 63.21875 -47.601562 61.429688 -56.15625 57.859375 -62.84375 C 54.296875 -69.539062 49.140625 -72.890625 42.390625 -72.890625 C 35.648438 -72.890625 30.492188 -69.539062 26.921875 -62.84375 C 23.359375 -56.15625 21.578125 -47.601562 21.578125 -37.1875 C 21.578125 -26.78125 23.359375 -18.226562 26.921875 -11.53125 C 30.492188 -4.832031 35.648438 -1.484375 42.390625 -1.484375 Z M 42.390625 -1.484375 "/></g></g></g></g></g></g></g></g></svg>